<?xml version="1.0" encoding="UTF-8" standalone="no"?>
<!DOCTYPE svg PUBLIC "-//W3C//DTD SVG 1.1//EN" "http://www.w3.org/Graphics/SVG/1.1/DTD/svg11.dtd">
<svg version="1.1" xmlns="http://www.w3.org/2000/svg" xmlns:xlink="http://www.w3.org/1999/xlink" preserveAspectRatio="xMidYMid meet" viewBox="0 0 640 640" width="640" height="640"><defs><path d="M234.86 99.87C231.92 110.66 226.79 121.32 218.89 129.24C218.53 123.7 218.53 118.1 219.03 112.56C223.57 107.61 228.32 103.15 233.56 99.02C234.18 98.53 235.06 99.11 234.86 99.87Z" id="bjDnB6x"></path><path d="M234.86 99.87C231.92 110.66 226.79 121.32 218.89 129.24C218.53 123.7 218.53 118.1 219.03 112.56C223.57 107.61 228.32 103.15 233.56 99.02C234.18 98.53 235.06 99.11 234.86 99.87Z" id="durbR8j73"></path><path d="M205.35 112.25C204.71 124.85 209.52 139.58 221.25 145.53C220.08 140.17 219.24 134.72 218.89 129.25C214.32 123.74 210.4 118.04 206.87 111.9C206.46 111.19 205.39 111.44 205.35 112.25Z" id="b2he3jbNGU"></path><path d="M205.35 112.25C204.71 124.85 209.52 139.58 221.25 145.53C220.08 140.17 219.24 134.72 218.89 129.25C214.32 123.74 210.4 118.04 206.87 111.9C206.46 111.19 205.39 111.44 205.35 112.25Z" id="a5HgAx4Qn"></path><path d="M232.58 129.22C233.04 140.09 231.18 151.59 225.96 161.14C224.03 156.06 222.4 150.84 221.24 145.52C224.12 139.61 227.33 134.11 231.1 128.78C231.55 128.15 232.55 128.44 232.58 129.22Z" id="ccQuIUcoH"></path><path d="M232.58 129.22C233.04 140.09 231.18 151.59 225.96 161.14C224.03 156.06 222.4 150.84 221.24 145.52C224.12 139.61 227.33 134.11 231.1 128.78C231.55 128.15 232.55 128.44 232.58 129.22Z" id="a1mQja19wo"></path><path d="M208.09 149.3C211.22 161.33 220.17 173.67 232.91 175.85C230.26 171.13 227.89 166.22 225.96 161.15C220.04 157.34 214.62 153.17 209.43 148.5C208.83 147.96 207.89 148.52 208.09 149.3Z" id="c2yJ12JwXz"></path><path d="M208.09 149.3C211.22 161.33 220.17 173.67 232.91 175.85C230.26 171.13 227.89 166.22 225.96 161.15C220.04 157.34 214.62 153.17 209.43 148.5C208.83 147.96 207.89 148.52 208.09 149.3Z" id="d9VVhivtU"></path><path d="M239.04 157.09C242.65 167.29 244.12 178.81 241.94 189.39C238.62 185.1 235.55 180.59 232.91 175.85C233.94 169.4 235.43 163.25 237.5 157.1C237.74 156.37 238.78 156.36 239.04 157.09Z" id="bfPRnxyoJ"></path><path d="M239.04 157.09C242.65 167.29 244.12 178.81 241.94 189.39C238.62 185.1 235.55 180.59 232.91 175.85C233.94 169.4 235.43 163.25 237.5 157.1C237.74 156.37 238.78 156.36 239.04 157.09Z" id="jkE59AX8l"></path><path d="M221.44 183.31C227.94 193.91 240.1 203.08 252.92 201.5C248.99 197.73 245.27 193.71 241.94 189.39C235.18 187.48 228.8 185.08 222.48 182.15C221.75 181.81 221.02 182.62 221.44 183.31Z" id="h1nhQE2vr1"></path><path d="M221.44 183.31C227.94 193.91 240.1 203.08 252.92 201.5C248.99 197.73 245.27 193.71 241.94 189.39C235.18 187.48 228.8 185.08 222.48 182.15C221.75 181.81 221.02 182.62 221.44 183.31Z" id="b15PmQqMo"></path><path d="M253.26 181.69C259.73 190.46 264.56 201.12 265.71 211.93C261.21 208.77 256.89 205.31 252.92 201.5C252 195 251.6 188.67 251.78 182.15C251.81 181.38 252.8 181.07 253.26 181.69Z" id="a5JIJG9v69"></path><path d="M253.26 181.69C259.73 190.46 264.56 201.12 265.71 211.93C261.21 208.77 256.89 205.31 252.92 201.5C252 195 251.6 188.67 251.78 182.15C251.81 181.38 252.8 181.07 253.26 181.69Z" id="blUgBToL"></path><path d="M366.94 99.87C369.88 110.66 375.01 121.32 382.91 129.24C383.27 123.7 383.27 118.1 382.77 112.56C378.23 107.61 373.48 103.15 368.24 99.02C367.62 98.53 366.74 99.11 366.94 99.87Z" id="daZuysvm0"></path><path d="M366.94 99.87C369.88 110.66 375.01 121.32 382.91 129.24C383.27 123.7 383.27 118.1 382.77 112.56C378.23 107.61 373.48 103.15 368.24 99.02C367.62 98.53 366.74 99.11 366.94 99.87Z" id="a2jAA6PUSi"></path><path d="M396.45 112.25C397.09 124.85 392.28 139.58 380.55 145.53C381.72 140.17 382.56 134.72 382.91 129.25C387.47 123.74 391.4 118.04 394.93 111.9C395.33 111.19 396.41 111.44 396.45 112.25Z" id="d7E7duXS"></path><path d="M396.45 112.25C397.09 124.85 392.28 139.58 380.55 145.53C381.72 140.17 382.56 134.72 382.91 129.25C387.47 123.74 391.4 118.04 394.93 111.9C395.33 111.19 396.41 111.44 396.45 112.25Z" id="b1mCHkrSKo"></path><path d="M369.22 129.22C368.76 140.09 370.62 151.59 375.84 161.14C377.77 156.06 379.4 150.84 380.55 145.52C377.68 139.61 374.47 134.11 370.7 128.78C370.25 128.15 369.25 128.44 369.22 129.22Z" id="b8bgv5WEC"></path><path d="M369.22 129.22C368.76 140.09 370.62 151.59 375.84 161.14C377.77 156.06 379.4 150.84 380.55 145.52C377.68 139.61 374.47 134.11 370.7 128.78C370.25 128.15 369.25 128.44 369.22 129.22Z" id="e1sIFaLq0"></path><path d="M393.7 149.3C390.58 161.33 381.63 173.67 368.89 175.85C371.54 171.13 373.91 166.22 375.83 161.15C381.76 157.34 387.18 153.17 392.37 148.5C392.97 147.96 393.91 148.52 393.7 149.3Z" id="aprP6H6Ly"></path><path d="M393.7 149.3C390.58 161.33 381.63 173.67 368.89 175.85C371.54 171.13 373.91 166.22 375.83 161.15C381.76 157.34 387.18 153.17 392.37 148.5C392.97 147.96 393.91 148.52 393.7 149.3Z" id="aIjiHQlNV"></path><path d="M362.76 157.09C359.15 167.29 357.68 178.81 359.86 189.39C363.18 185.1 366.25 180.59 368.89 175.85C367.86 169.4 366.37 163.25 364.3 157.1C364.06 156.37 363.02 156.36 362.76 157.09Z" id="f60l0n0Ww"></path><path d="M362.76 157.09C359.15 167.29 357.68 178.81 359.86 189.39C363.18 185.1 366.25 180.59 368.89 175.85C367.86 169.4 366.37 163.25 364.3 157.1C364.06 156.37 363.02 156.36 362.76 157.09Z" id="b7YA7JmKm7"></path><path d="M380.36 183.31C373.86 193.91 361.69 203.08 348.88 201.5C352.81 197.73 356.53 193.71 359.86 189.39C366.62 187.48 373 185.08 379.32 182.15C380.05 181.81 380.78 182.62 380.36 183.31Z" id="a1XzR4N5rt"></path><path d="M380.36 183.31C373.86 193.91 361.69 203.08 348.88 201.5C352.81 197.73 356.53 193.71 359.86 189.39C366.62 187.48 373 185.08 379.32 182.15C380.05 181.81 380.78 182.62 380.36 183.31Z" id="j21JPSFqgp"></path><path d="M348.54 181.69C342.07 190.46 337.24 201.12 336.09 211.93C340.59 208.77 344.91 205.31 348.88 201.5C349.8 195 350.2 188.67 350.01 182.15C349.99 181.38 349 181.07 348.54 181.69Z" id="e2iIKvLbBc"></path><path d="M348.54 181.69C342.07 190.46 337.24 201.12 336.09 211.93C340.59 208.77 344.91 205.31 348.88 201.5C349.8 195 350.2 188.67 350.01 182.15C349.99 181.38 349 181.07 348.54 181.69Z" id="dc4xcuIik"></path><path d="M267.01 210.19C267.01 210.18 267.01 210.18 267.01 210.18C262.38 206.93 258.2 203.52 254.59 200.06C254.59 200.06 254.59 200.06 254.59 200.06C250.54 196.18 246.95 192.22 243.92 188.3C243.92 188.3 243.92 188.3 243.92 188.29C243.92 188.29 243.92 188.29 243.92 188.29C240.5 183.87 237.55 179.45 235.15 175.15C235.15 175.14 235.15 175.14 235.14 175.14C232.42 170.27 230.15 165.46 228.4 160.87C228.4 160.86 228.4 160.86 228.4 160.86C228.4 160.86 228.4 160.86 228.4 160.86C226.41 155.62 224.87 150.51 223.82 145.69C223.82 145.69 223.82 145.69 223.82 145.69C222.61 140.17 221.84 134.85 221.53 129.89C221.53 129.88 221.53 129.88 221.53 129.88C221.16 124.16 221.21 118.71 221.66 113.68C221.67 113.62 221.67 113.56 221.67 113.5C222.27 105.73 223.71 97.93 225.96 90.33C226.41 88.8 225.53 87.19 224 86.74C222.48 86.29 220.87 87.16 220.42 88.69C218.04 96.77 216.51 105.05 215.89 113.31C215.89 113.37 215.89 113.42 215.89 113.48C215.43 118.72 215.39 124.35 215.77 130.25C215.77 130.25 215.77 130.25 215.77 130.25C216.1 135.5 216.91 141.1 218.17 146.9C218.18 146.91 218.18 146.91 218.18 146.92C219.29 152.02 220.91 157.4 223.01 162.91C223.01 162.91 223.01 162.91 223.01 162.91C223.01 162.91 223.01 162.91 223.01 162.91C224.85 167.78 227.24 172.84 230.11 177.96C230.11 177.96 230.11 177.96 230.11 177.96C230.11 177.97 230.11 177.97 230.11 177.97C230.11 177.97 230.11 177.97 230.11 177.97C230.11 177.97 230.11 177.97 230.11 177.97C232.66 182.52 235.77 187.18 239.35 191.82C239.35 191.82 239.36 191.82 239.36 191.83C242.56 195.97 246.34 200.14 250.59 204.22C250.59 204.22 250.59 204.22 250.59 204.22C254.41 207.89 258.82 211.48 263.69 214.91C263.7 214.91 263.7 214.91 263.7 214.91C263.7 214.91 263.7 214.91 263.7 214.91C268.09 218 273.08 220.93 278.52 223.61C278.93 223.81 279.36 223.91 279.79 223.91C280.85 223.91 281.88 223.32 282.38 222.3C283.09 220.87 282.5 219.14 281.07 218.43C275.9 215.88 271.17 213.11 267.02 210.19C267.02 210.19 267.01 210.19 267.01 210.19Z" id="boZdrqBKX"></path><path d="M267.01 210.19C267.01 210.18 267.01 210.18 267.01 210.18C262.38 206.93 258.2 203.52 254.59 200.06C254.59 200.06 254.59 200.06 254.59 200.06C250.54 196.18 246.95 192.22 243.92 188.3C243.92 188.3 243.92 188.3 243.92 188.29C243.92 188.29 243.92 188.29 243.92 188.29C240.5 183.87 237.55 179.45 235.15 175.15C235.15 175.14 235.15 175.14 235.14 175.14C232.42 170.27 230.15 165.46 228.4 160.87C228.4 160.86 228.4 160.86 228.4 160.86C228.4 160.86 228.4 160.86 228.4 160.86C226.41 155.62 224.87 150.51 223.82 145.69C223.82 145.69 223.82 145.69 223.82 145.69C222.61 140.17 221.84 134.85 221.53 129.89C221.53 129.88 221.53 129.88 221.53 129.88C221.16 124.16 221.21 118.71 221.66 113.68C221.67 113.62 221.67 113.56 221.67 113.5C222.27 105.73 223.71 97.93 225.96 90.33C226.41 88.8 225.53 87.19 224 86.74C222.48 86.29 220.87 87.16 220.42 88.69C218.04 96.77 216.51 105.05 215.89 113.31C215.89 113.37 215.89 113.42 215.89 113.48C215.43 118.72 215.39 124.35 215.77 130.25C215.77 130.25 215.77 130.25 215.77 130.25C216.1 135.5 216.91 141.1 218.17 146.9C218.18 146.91 218.18 146.91 218.18 146.92C219.29 152.02 220.91 157.4 223.01 162.91C223.01 162.91 223.01 162.91 223.01 162.91C223.01 162.91 223.01 162.91 223.01 162.91C224.85 167.78 227.24 172.84 230.11 177.96C230.11 177.96 230.11 177.96 230.11 177.96C230.11 177.97 230.11 177.97 230.11 177.97C230.11 177.97 230.11 177.97 230.11 177.97C230.11 177.97 230.11 177.97 230.11 177.97C232.66 182.52 235.77 187.18 239.35 191.82C239.35 191.82 239.36 191.82 239.36 191.83C242.56 195.97 246.34 200.14 250.59 204.22C250.59 204.22 250.59 204.22 250.59 204.22C254.41 207.89 258.82 211.48 263.69 214.91C263.7 214.91 263.7 214.91 263.7 214.91C263.7 214.91 263.7 214.91 263.7 214.91C268.09 218 273.08 220.93 278.52 223.61C278.93 223.81 279.36 223.91 279.79 223.91C280.85 223.91 281.88 223.32 282.38 222.3C283.09 220.87 282.5 219.14 281.07 218.43C275.9 215.88 271.17 213.11 267.02 210.19C267.02 210.19 267.01 210.19 267.01 210.19Z" id="bFk0lhZ1"></path><path d="M380.93 88.12C380.48 86.59 378.87 85.72 377.35 86.17C375.82 86.62 374.94 88.22 375.39 89.75C377.64 97.35 379.08 105.15 379.68 112.93C379.68 112.99 379.68 113.05 379.69 113.11C380.14 118.14 380.19 123.59 379.82 129.31C379.82 129.31 379.82 129.31 379.82 129.31C379.82 129.31 379.82 129.31 379.82 129.31C379.51 134.27 378.74 139.59 377.53 145.11C377.53 145.12 377.53 145.12 377.53 145.12C376.49 149.94 374.94 155.04 372.95 160.29C372.95 160.29 372.95 160.29 372.95 160.29C372.95 160.29 372.95 160.29 372.95 160.29C371.2 164.89 368.93 169.69 366.2 174.57C366.2 174.57 366.2 174.57 366.2 174.57C363.8 178.87 360.85 183.3 357.43 187.72C357.43 187.72 357.43 187.72 357.43 187.72C357.43 187.72 357.43 187.72 357.43 187.72C354.4 191.65 350.81 195.6 346.76 199.48C346.76 199.48 346.76 199.49 346.76 199.49C343.15 202.95 338.97 206.35 334.34 209.61C334.34 209.61 334.34 209.61 334.33 209.61C334.33 209.61 334.33 209.61 334.33 209.61C330.18 212.53 325.45 215.31 320.28 217.86C318.85 218.56 318.26 220.29 318.97 221.72C319.47 222.74 320.49 223.33 321.56 223.33C321.99 223.33 322.42 223.24 322.83 223.04C328.27 220.35 333.26 217.43 337.65 214.33C337.65 214.33 337.65 214.33 337.66 214.33C342.53 210.9 346.94 207.31 350.76 203.65C350.76 203.65 350.76 203.64 350.76 203.64C355.02 199.57 358.8 195.4 362 191.25C362 191.25 362 191.25 362 191.25C362 191.25 362 191.25 362 191.25C365.59 186.6 368.7 181.94 371.24 177.39C371.24 177.39 371.24 177.38 371.24 177.38C374.11 172.26 376.5 167.2 378.34 162.34C378.34 162.34 378.34 162.34 378.34 162.34C378.34 162.34 378.34 162.34 378.34 162.34C380.44 156.83 382.06 151.45 383.17 146.35C383.17 146.35 383.17 146.35 383.17 146.35C384.44 140.54 385.25 134.93 385.58 129.68C385.58 129.67 385.58 129.67 385.58 129.67C385.96 123.77 385.92 118.14 385.46 112.9C385.46 112.85 385.46 112.79 385.46 112.74C384.84 104.47 383.31 96.19 380.93 88.12Z" id="b3sbvNdJC4"></path><path d="M380.93 88.12C380.48 86.59 378.87 85.72 377.35 86.17C375.82 86.62 374.94 88.22 375.39 89.75C377.64 97.35 379.08 105.15 379.68 112.93C379.68 112.99 379.68 113.05 379.69 113.11C380.14 118.14 380.19 123.59 379.82 129.31C379.82 129.31 379.82 129.31 379.82 129.31C379.82 129.31 379.82 129.31 379.82 129.31C379.51 134.27 378.74 139.59 377.53 145.11C377.53 145.12 377.53 145.12 377.53 145.12C376.49 149.94 374.94 155.04 372.95 160.29C372.95 160.29 372.95 160.29 372.95 160.29C372.95 160.29 372.95 160.29 372.95 160.29C371.2 164.89 368.93 169.69 366.2 174.57C366.2 174.57 366.2 174.57 366.2 174.57C363.8 178.87 360.85 183.3 357.43 187.72C357.43 187.72 357.43 187.72 357.43 187.72C357.43 187.72 357.43 187.72 357.43 187.72C354.4 191.65 350.81 195.6 346.76 199.48C346.76 199.48 346.76 199.49 346.76 199.49C343.15 202.95 338.97 206.35 334.34 209.61C334.34 209.61 334.34 209.61 334.33 209.61C334.33 209.61 334.33 209.61 334.33 209.61C330.18 212.53 325.45 215.31 320.28 217.86C318.85 218.56 318.26 220.29 318.97 221.72C319.47 222.74 320.49 223.33 321.56 223.33C321.99 223.33 322.42 223.24 322.83 223.04C328.27 220.35 333.26 217.43 337.65 214.33C337.65 214.33 337.65 214.33 337.66 214.33C342.53 210.9 346.94 207.31 350.76 203.65C350.76 203.65 350.76 203.64 350.76 203.64C355.02 199.57 358.8 195.4 362 191.25C362 191.25 362 191.25 362 191.25C362 191.25 362 191.25 362 191.25C365.59 186.6 368.7 181.94 371.24 177.39C371.24 177.39 371.24 177.38 371.24 177.38C374.11 172.26 376.5 167.2 378.34 162.34C378.34 162.34 378.34 162.34 378.34 162.34C378.34 162.34 378.34 162.34 378.34 162.34C380.44 156.83 382.06 151.45 383.17 146.35C383.17 146.35 383.17 146.35 383.17 146.35C384.44 140.54 385.25 134.93 385.58 129.68C385.58 129.67 385.58 129.67 385.58 129.67C385.96 123.77 385.92 118.14 385.46 112.9C385.46 112.85 385.46 112.79 385.46 112.74C384.84 104.47 383.31 96.19 380.93 88.12Z" id="g4MBGwxPco"></path><path d="M249.1 134.38C249.1 133.41 249.1 125.6 249.1 124.62C249.1 123.5 249.54 122.44 250.33 121.64C251.13 120.85 252.19 120.41 253.31 120.41C253.31 120.41 253.32 120.41 253.32 120.41C255.88 120.41 276.31 120.46 278.87 120.46C280.46 120.47 281.75 121.76 281.75 123.36C281.74 124.95 280.45 126.24 278.86 126.24C278.86 126.24 278.86 126.24 278.86 126.24C277.26 126.23 269.26 126.22 254.87 126.18C254.87 131.1 254.87 133.84 254.87 134.38C254.87 143.14 258.69 151.41 265.36 157.09C271.98 162.72 280.68 165.16 289.23 163.77C289.52 163.72 289.82 163.67 290.12 163.62C291.7 163.35 293.19 164.39 293.46 165.96C293.74 167.53 292.69 169.03 291.12 169.3C290.79 169.36 290.47 169.41 290.15 169.47C288.27 169.77 286.38 169.92 284.5 169.92C276.18 169.92 268.07 166.97 261.62 161.48C253.66 154.71 249.1 144.83 249.1 134.38Z" id="g1XHS743DH"></path><path d="M249.1 134.38C249.1 133.41 249.1 125.6 249.1 124.62C249.1 123.5 249.54 122.44 250.33 121.64C251.13 120.85 252.19 120.41 253.31 120.41C253.31 120.41 253.32 120.41 253.32 120.41C255.88 120.41 276.31 120.46 278.87 120.46C280.46 120.47 281.75 121.76 281.75 123.36C281.74 124.95 280.45 126.24 278.86 126.24C278.86 126.24 278.86 126.24 278.86 126.24C277.26 126.23 269.26 126.22 254.87 126.18C254.87 131.1 254.87 133.84 254.87 134.38C254.87 143.14 258.69 151.41 265.36 157.09C271.98 162.72 280.68 165.16 289.23 163.77C289.52 163.72 289.82 163.67 290.12 163.62C291.7 163.35 293.19 164.39 293.46 165.96C293.74 167.53 292.69 169.03 291.12 169.3C290.79 169.36 290.47 169.41 290.15 169.47C288.27 169.77 286.38 169.92 284.5 169.92C276.18 169.92 268.07 166.97 261.62 161.48C253.66 154.71 249.1 144.83 249.1 134.38Z" id="d2J4rBNi4i"></path><path d="M310.68 169.3C309.11 169.03 308.06 167.53 308.33 165.96C308.61 164.39 310.11 163.34 311.68 163.62C311.98 163.67 312.27 163.72 312.57 163.77C321.12 165.15 329.82 162.72 336.44 157.09C343.11 151.41 346.93 143.14 346.93 134.38C346.93 133.84 346.93 131.1 346.93 126.18C332.54 126.22 324.54 126.23 322.94 126.24C322.94 126.24 322.94 126.24 322.94 126.24C321.35 126.24 320.05 124.95 320.05 123.36C320.05 121.76 321.34 120.47 322.93 120.47C325.48 120.46 345.92 120.41 348.48 120.41C348.48 120.41 348.49 120.41 348.49 120.41C349.61 120.41 350.67 120.85 351.47 121.64C352.26 122.44 352.7 123.5 352.7 124.62C352.7 125.6 352.7 133.41 352.7 134.38C352.7 144.83 348.14 154.71 340.18 161.48C333.73 166.97 325.62 169.92 317.3 169.92C315.42 169.92 313.53 169.77 311.65 169.47C311.33 169.41 311 169.36 310.68 169.3Z" id="d4UXVvbzFt"></path><path d="M310.68 169.3C309.11 169.03 308.06 167.53 308.33 165.96C308.61 164.39 310.11 163.34 311.68 163.62C311.98 163.67 312.27 163.72 312.57 163.77C321.12 165.15 329.82 162.72 336.44 157.09C343.11 151.41 346.93 143.14 346.93 134.38C346.93 133.84 346.93 131.1 346.93 126.18C332.54 126.22 324.54 126.23 322.94 126.24C322.94 126.24 322.94 126.24 322.94 126.24C321.35 126.24 320.05 124.95 320.05 123.36C320.05 121.76 321.34 120.47 322.93 120.47C325.48 120.46 345.92 120.41 348.48 120.41C348.48 120.41 348.49 120.41 348.49 120.41C349.61 120.41 350.67 120.85 351.47 121.64C352.26 122.44 352.7 123.5 352.7 124.62C352.7 125.6 352.7 133.41 352.7 134.38C352.7 144.83 348.14 154.71 340.18 161.48C333.73 166.97 325.62 169.92 317.3 169.92C315.42 169.92 313.53 169.77 311.65 169.47C311.33 169.41 311 169.36 310.68 169.3Z" id="a4pzRtjViz"></path><path d="M305.79 163.08C305.47 163.08 303.84 163.08 300.9 163.08C297.96 163.08 296.33 163.08 296 163.08C296 163.08 297.64 191.81 281.93 211.74C289.52 211.74 316.08 211.74 319.87 211.74C304.15 191.81 308.6 172.81 305.79 163.08Z" id="a2JPNur6Nu"></path><path d="M305.79 163.08C305.47 163.08 303.84 163.08 300.9 163.08C297.96 163.08 296.33 163.08 296 163.08C296 163.08 297.64 191.81 281.93 211.74C289.52 211.74 316.08 211.74 319.87 211.74C304.15 191.81 308.6 172.81 305.79 163.08Z" id="eKecaeKW3"></path><path d="M296 163.08C296 163.08 296.26 167.54 295.61 174.17C294.36 186.79 297.49 199.53 304.88 209.85C305.34 210.49 305.82 211.12 306.31 211.74C307.66 211.74 318.52 211.74 319.87 211.74C304.15 191.81 305.79 163.08 305.79 163.08C305.14 163.08 303.51 163.08 300.9 163.08C297.96 163.08 296.33 163.08 296 163.08Z" id="l32i4CYQRZ"></path><path d="M296 163.08C296 163.08 296.26 167.54 295.61 174.17C294.36 186.79 297.49 199.53 304.88 209.85C305.34 210.49 305.82 211.12 306.31 211.74C307.66 211.74 318.52 211.74 319.87 211.74C304.15 191.81 305.79 163.08 305.79 163.08C305.14 163.08 303.51 163.08 300.9 163.08C297.96 163.08 296.33 163.08 296 163.08Z" id="b3hbs8c7Y"></path><path d="M291.35 175.05C291.35 175.05 291.35 175.05 291.35 175.05C297.03 179.24 304.77 179.24 310.45 175.05C310.45 175.05 310.45 175.05 310.45 175.05C322.45 166.22 329.52 152.21 329.52 137.32C329.52 135.64 329.52 127.24 329.52 112.14C325.7 112.14 306.62 112.14 272.27 112.14C272.27 112.14 272.27 112.14 272.27 112.14C272.27 127.24 272.27 135.64 272.27 137.32C272.27 152.21 279.35 166.22 291.35 175.05Z" id="b1jDvxW1Bi"></path><path d="M291.35 175.05C291.35 175.05 291.35 175.05 291.35 175.05C297.03 179.24 304.77 179.24 310.45 175.05C310.45 175.05 310.45 175.05 310.45 175.05C322.45 166.22 329.52 152.21 329.52 137.32C329.52 135.64 329.52 127.24 329.52 112.14C325.7 112.14 306.62 112.14 272.27 112.14C272.27 112.14 272.27 112.14 272.27 112.14C272.27 127.24 272.27 135.64 272.27 137.32C272.27 152.21 279.35 166.22 291.35 175.05Z" id="a40KzPbfC"></path><path d="M296.82 175.05C296.82 175.05 296.82 175.05 296.82 175.05C295.95 175.69 295.04 176.23 294.08 176.68C299.35 179.14 305.64 178.6 310.45 175.05C310.45 175.05 310.45 175.05 310.45 175.05C322.44 166.22 329.52 152.21 329.52 137.32C329.52 135.64 329.52 127.24 329.52 112.14C328.61 112.14 324.07 112.14 315.89 112.14C315.89 112.14 315.89 112.14 315.89 112.14C315.89 127.24 315.89 135.64 315.89 137.32C315.89 152.21 308.82 166.22 296.82 175.05Z" id="a7xXMUbem"></path><path d="M296.82 175.05C296.82 175.05 296.82 175.05 296.82 175.05C295.95 175.69 295.04 176.23 294.08 176.68C299.35 179.14 305.64 178.6 310.45 175.05C310.45 175.05 310.45 175.05 310.45 175.05C322.44 166.22 329.52 152.21 329.52 137.32C329.52 135.64 329.52 127.24 329.52 112.14C328.61 112.14 324.07 112.14 315.89 112.14C315.89 112.14 315.89 112.14 315.89 112.14C315.89 127.24 315.89 135.64 315.89 137.32C315.89 152.21 308.82 166.22 296.82 175.05Z" id="c76B9p9WD"></path><path d="M268.55 114.4C268.55 113.7 268.55 108.15 268.55 107.46C268.55 106.53 269.3 105.79 270.22 105.79C276.36 105.79 325.44 105.79 331.58 105.79C332.5 105.79 333.25 106.53 333.25 107.46C333.25 108.15 333.25 113.7 333.25 114.4C333.25 115.32 332.5 116.07 331.58 116.07C319.3 116.07 276.36 116.07 270.22 116.07C269.3 116.07 268.55 115.32 268.55 114.4Z" id="k1WT3sp28a"></path><path d="M268.55 114.4C268.55 113.7 268.55 108.15 268.55 107.46C268.55 106.53 269.3 105.79 270.22 105.79C276.36 105.79 325.44 105.79 331.58 105.79C332.5 105.79 333.25 106.53 333.25 107.46C333.25 108.15 333.25 113.7 333.25 114.4C333.25 115.32 332.5 116.07 331.58 116.07C319.3 116.07 276.36 116.07 270.22 116.07C269.3 116.07 268.55 115.32 268.55 114.4Z" id="al3hqlkPZ"></path><path d="M319.62 116.07C326.79 116.07 330.78 116.07 331.58 116.07C332.5 116.07 333.25 115.32 333.25 114.4C333.25 113.7 333.25 108.15 333.25 107.46C333.25 106.54 332.5 105.79 331.58 105.79C329.98 105.79 326 105.79 319.62 105.79C319.62 107.85 319.62 115.04 319.62 116.07Z" id="c1p0zDzdLV"></path><path d="M319.62 116.07C326.79 116.07 330.78 116.07 331.58 116.07C332.5 116.07 333.25 115.32 333.25 114.4C333.25 113.7 333.25 108.15 333.25 107.46C333.25 106.54 332.5 105.79 331.58 105.79C329.98 105.79 326 105.79 319.62 105.79C319.62 107.85 319.62 115.04 319.62 116.07Z" id="b22EJmvkjP"></path><path d="M267.34 222.09C267.82 220.79 271.67 210.35 272.15 209.04C272.35 208.51 272.85 208.16 273.42 208.16C278.94 208.16 323.11 208.16 328.64 208.16C329.2 208.16 329.71 208.51 329.9 209.04C330.38 210.35 334.24 220.79 334.72 222.09C335.04 222.97 334.39 223.91 333.45 223.91C320.48 223.91 275.09 223.91 268.6 223.91C267.66 223.91 267.01 222.97 267.34 222.09Z" id="h1gFsZEJaK"></path><path d="M267.34 222.09C267.82 220.79 271.67 210.35 272.15 209.04C272.35 208.51 272.85 208.16 273.42 208.16C278.94 208.16 323.11 208.16 328.64 208.16C329.2 208.16 329.71 208.51 329.9 209.04C330.38 210.35 334.24 220.79 334.72 222.09C335.04 222.97 334.39 223.91 333.45 223.91C320.48 223.91 275.09 223.91 268.6 223.91C267.66 223.91 267.01 222.97 267.34 222.09Z" id="a6rR4ATuCS"></path><path d="M328.64 208.16C327.76 208.16 323.37 208.16 315.47 208.16C316.05 209.74 320.7 222.34 321.28 223.91C328.58 223.91 332.64 223.91 333.45 223.91C334.39 223.91 335.04 222.97 334.72 222.09C333.76 219.48 330.39 210.35 329.9 209.04C329.71 208.51 329.2 208.16 328.64 208.16Z" id="h5v1AB9bz"></path><path d="M328.64 208.16C327.76 208.16 323.37 208.16 315.47 208.16C316.05 209.74 320.7 222.34 321.28 223.91C328.58 223.91 332.64 223.91 333.45 223.91C334.39 223.91 335.04 222.97 334.72 222.09C333.76 219.48 330.39 210.35 329.9 209.04C329.71 208.51 329.2 208.16 328.64 208.16Z" id="a3KSK2anzD"></path><path d="M407.66 69.92C418.7 69.92 427.66 78.88 427.66 89.92C427.66 125.92 427.66 213.92 427.66 249.92C427.66 260.97 418.7 269.92 407.66 269.92C361.86 269.92 244.47 269.92 198.68 269.92C187.63 269.92 178.68 260.97 178.68 249.92C178.68 213.92 178.68 125.92 178.68 89.92C178.68 78.88 187.63 69.92 198.68 69.92C244.47 69.92 361.86 69.92 407.66 69.92Z" id="b8dQPDQZ6"></path></defs><g><g><g><use xlink:href="#bjDnB6x" opacity="1" fill="#ff901d" fill-opacity="1"></use><g><use xlink:href="#bjDnB6x" opacity="1" fill-opacity="0" stroke="#000000" stroke-width="1" stroke-opacity="0"></use></g></g><g><use xlink:href="#durbR8j73" opacity="1" fill="#000000" fill-opacity="0"></use><g><use xlink:href="#durbR8j73" opacity="1" fill-opacity="0" stroke="#000000" stroke-width="1" stroke-opacity="0"></use></g></g><g><use xlink:href="#b2he3jbNGU" opacity="1" fill="#ff901d" fill-opacity="1"></use><g><use xlink:href="#b2he3jbNGU" opacity="1" fill-opacity="0" stroke="#000000" stroke-width="1" stroke-opacity="0"></use></g></g><g><use xlink:href="#a5HgAx4Qn" opacity="1" fill="#000000" fill-opacity="0"></use><g><use xlink:href="#a5HgAx4Qn" opacity="1" fill-opacity="0" stroke="#000000" stroke-width="1" stroke-opacity="0"></use></g></g><g><use xlink:href="#ccQuIUcoH" opacity="1" fill="#ff901d" fill-opacity="1"></use><g><use xlink:href="#ccQuIUcoH" opacity="1" fill-opacity="0" stroke="#000000" stroke-width="1" stroke-opacity="0"></use></g></g><g><use xlink:href="#a1mQja19wo" opacity="1" fill="#000000" fill-opacity="0"></use><g><use xlink:href="#a1mQja19wo" opacity="1" fill-opacity="0" stroke="#000000" stroke-width="1" stroke-opacity="0"></use></g></g><g><use xlink:href="#c2yJ12JwXz" opacity="1" fill="#ff901d" fill-opacity="1"></use><g><use xlink:href="#c2yJ12JwXz" opacity="1" fill-opacity="0" stroke="#000000" stroke-width="1" stroke-opacity="0"></use></g></g><g><use xlink:href="#d9VVhivtU" opacity="1" fill="#000000" fill-opacity="0"></use><g><use xlink:href="#d9VVhivtU" opacity="1" fill-opacity="0" stroke="#000000" stroke-width="1" stroke-opacity="0"></use></g></g><g><use xlink:href="#bfPRnxyoJ" opacity="1" fill="#ff901d" fill-opacity="1"></use><g><use xlink:href="#bfPRnxyoJ" opacity="1" fill-opacity="0" stroke="#000000" stroke-width="1" stroke-opacity="0"></use></g></g><g><use xlink:href="#jkE59AX8l" opacity="1" fill="#000000" fill-opacity="0"></use><g><use xlink:href="#jkE59AX8l" opacity="1" fill-opacity="0" stroke="#000000" stroke-width="1" stroke-opacity="0"></use></g></g><g><use xlink:href="#h1nhQE2vr1" opacity="1" fill="#ff901d" fill-opacity="1"></use><g><use xlink:href="#h1nhQE2vr1" opacity="1" fill-opacity="0" stroke="#000000" stroke-width="1" stroke-opacity="0"></use></g></g><g><use xlink:href="#b15PmQqMo" opacity="1" fill="#000000" fill-opacity="0"></use><g><use xlink:href="#b15PmQqMo" opacity="1" fill-opacity="0" stroke="#000000" stroke-width="1" stroke-opacity="0"></use></g></g><g><use xlink:href="#a5JIJG9v69" opacity="1" fill="#ff901d" fill-opacity="1"></use><g><use xlink:href="#a5JIJG9v69" opacity="1" fill-opacity="0" stroke="#000000" stroke-width="1" stroke-opacity="0"></use></g></g><g><use xlink:href="#blUgBToL" opacity="1" fill="#000000" fill-opacity="0"></use><g><use xlink:href="#blUgBToL" opacity="1" fill-opacity="0" stroke="#000000" stroke-width="1" stroke-opacity="0"></use></g></g><g><use xlink:href="#daZuysvm0" opacity="1" fill="#ff901d" fill-opacity="1"></use><g><use xlink:href="#daZuysvm0" opacity="1" fill-opacity="0" stroke="#000000" stroke-width="1" stroke-opacity="0"></use></g></g><g><use xlink:href="#a2jAA6PUSi" opacity="1" fill="#000000" fill-opacity="0"></use><g><use xlink:href="#a2jAA6PUSi" opacity="1" fill-opacity="0" stroke="#000000" stroke-width="1" stroke-opacity="0"></use></g></g><g><use xlink:href="#d7E7duXS" opacity="1" fill="#ff901d" fill-opacity="1"></use><g><use xlink:href="#d7E7duXS" opacity="1" fill-opacity="0" stroke="#000000" stroke-width="1" stroke-opacity="0"></use></g></g><g><use xlink:href="#b1mCHkrSKo" opacity="1" fill="#000000" fill-opacity="0"></use><g><use xlink:href="#b1mCHkrSKo" opacity="1" fill-opacity="0" stroke="#000000" stroke-width="1" stroke-opacity="0"></use></g></g><g><use xlink:href="#b8bgv5WEC" opacity="1" fill="#ff901d" fill-opacity="1"></use><g><use xlink:href="#b8bgv5WEC" opacity="1" fill-opacity="0" stroke="#000000" stroke-width="1" stroke-opacity="0"></use></g></g><g><use xlink:href="#e1sIFaLq0" opacity="1" fill="#000000" fill-opacity="0"></use><g><use xlink:href="#e1sIFaLq0" opacity="1" fill-opacity="0" stroke="#000000" stroke-width="1" stroke-opacity="0"></use></g></g><g><use xlink:href="#aprP6H6Ly" opacity="1" fill="#ff901d" fill-opacity="1"></use><g><use xlink:href="#aprP6H6Ly" opacity="1" fill-opacity="0" stroke="#000000" stroke-width="1" stroke-opacity="0"></use></g></g><g><use xlink:href="#aIjiHQlNV" opacity="1" fill="#000000" fill-opacity="0"></use><g><use xlink:href="#aIjiHQlNV" opacity="1" fill-opacity="0" stroke="#000000" stroke-width="1" stroke-opacity="0"></use></g></g><g><use xlink:href="#f60l0n0Ww" opacity="1" fill="#ff901d" fill-opacity="1"></use><g><use xlink:href="#f60l0n0Ww" opacity="1" fill-opacity="0" stroke="#000000" stroke-width="1" stroke-opacity="0"></use></g></g><g><use xlink:href="#b7YA7JmKm7" opacity="1" fill="#000000" fill-opacity="0"></use><g><use xlink:href="#b7YA7JmKm7" opacity="1" fill-opacity="0" stroke="#000000" stroke-width="1" stroke-opacity="0"></use></g></g><g><use xlink:href="#a1XzR4N5rt" opacity="1" fill="#ff901d" fill-opacity="1"></use><g><use xlink:href="#a1XzR4N5rt" opacity="1" fill-opacity="0" stroke="#000000" stroke-width="1" stroke-opacity="0"></use></g></g><g><use xlink:href="#j21JPSFqgp" opacity="1" fill="#000000" fill-opacity="0"></use><g><use xlink:href="#j21JPSFqgp" opacity="1" fill-opacity="0" stroke="#000000" stroke-width="1" stroke-opacity="0"></use></g></g><g><use xlink:href="#e2iIKvLbBc" opacity="1" fill="#ff901d" fill-opacity="1"></use><g><use xlink:href="#e2iIKvLbBc" opacity="1" fill-opacity="0" stroke="#000000" stroke-width="1" stroke-opacity="0"></use></g></g><g><use xlink:href="#dc4xcuIik" opacity="1" fill="#000000" fill-opacity="0"></use><g><use xlink:href="#dc4xcuIik" opacity="1" fill-opacity="0" stroke="#000000" stroke-width="1" stroke-opacity="0"></use></g></g><g><use xlink:href="#boZdrqBKX" opacity="1" fill="#bf14f7" fill-opacity="1"></use><g><use xlink:href="#boZdrqBKX" opacity="1" fill-opacity="0" stroke="#000000" stroke-width="1" stroke-opacity="0"></use></g></g><g><use xlink:href="#bFk0lhZ1" opacity="1" fill="#000000" fill-opacity="0"></use><g><use xlink:href="#bFk0lhZ1" opacity="1" fill-opacity="0" stroke="#000000" stroke-width="1" stroke-opacity="0"></use></g></g><g><use xlink:href="#b3sbvNdJC4" opacity="1" fill="#ef14f7" fill-opacity="1"></use><g><use xlink:href="#b3sbvNdJC4" opacity="1" fill-opacity="0" stroke="#000000" stroke-width="1" stroke-opacity="0"></use></g></g><g><use xlink:href="#g4MBGwxPco" opacity="1" fill="#000000" fill-opacity="0"></use><g><use xlink:href="#g4MBGwxPco" opacity="1" fill-opacity="0" stroke="#000000" stroke-width="1" stroke-opacity="0"></use></g></g><g><use xlink:href="#g1XHS743DH" opacity="1" fill="#ffb125" fill-opacity="1"></use><g><use xlink:href="#g1XHS743DH" opacity="1" fill-opacity="0" stroke="#000000" stroke-width="1" stroke-opacity="0"></use></g></g><g><use xlink:href="#d2J4rBNi4i" opacity="1" fill="#000000" fill-opacity="0"></use><g><use xlink:href="#d2J4rBNi4i" opacity="1" fill-opacity="0" stroke="#000000" stroke-width="1" stroke-opacity="0"></use></g></g><g><use xlink:href="#d4UXVvbzFt" opacity="1" fill="#ffb125" fill-opacity="1"></use><g><use xlink:href="#d4UXVvbzFt" opacity="1" fill-opacity="0" stroke="#000000" stroke-width="1" stroke-opacity="0"></use></g></g><g><use xlink:href="#a4pzRtjViz" opacity="1" fill="#000000" fill-opacity="0"></use><g><use xlink:href="#a4pzRtjViz" opacity="1" fill-opacity="0" stroke="#000000" stroke-width="1" stroke-opacity="0"></use></g></g><g><use xlink:href="#a2JPNur6Nu" opacity="1" fill="#fed130" fill-opacity="1"></use><g><use xlink:href="#a2JPNur6Nu" opacity="1" fill-opacity="0" stroke="#000000" stroke-width="1" stroke-opacity="0"></use></g></g><g><use xlink:href="#eKecaeKW3" opacity="1" fill="#000000" fill-opacity="0"></use><g><use xlink:href="#eKecaeKW3" opacity="1" fill-opacity="0" stroke="#000000" stroke-width="1" stroke-opacity="0"></use></g></g><g><use xlink:href="#l32i4CYQRZ" opacity="1" fill="#24f714" fill-opacity="1"></use><g><use xlink:href="#l32i4CYQRZ" opacity="1" fill-opacity="0" stroke="#000000" stroke-width="1" stroke-opacity="0"></use></g></g><g><use xlink:href="#b3hbs8c7Y" opacity="1" fill="#000000" fill-opacity="0"></use><g><use xlink:href="#b3hbs8c7Y" opacity="1" fill-opacity="0" stroke="#000000" stroke-width="1" stroke-opacity="0"></use></g></g><g><use xlink:href="#b1jDvxW1Bi" opacity="1" fill="#a030fe" fill-opacity="1"></use><g><use xlink:href="#b1jDvxW1Bi" opacity="1" fill-opacity="0" stroke="#000000" stroke-width="1" stroke-opacity="0"></use></g></g><g><use xlink:href="#a40KzPbfC" opacity="1" fill="#000000" fill-opacity="0"></use><g><use xlink:href="#a40KzPbfC" opacity="1" fill-opacity="0" stroke="#000000" stroke-width="1" stroke-opacity="0"></use></g></g><g><use xlink:href="#a7xXMUbem" opacity="1" fill="#14f7b5" fill-opacity="1"></use><g><use xlink:href="#a7xXMUbem" opacity="1" fill-opacity="0" stroke="#000000" stroke-width="1" stroke-opacity="0"></use></g></g><g><use xlink:href="#c76B9p9WD" opacity="1" fill="#000000" fill-opacity="0"></use><g><use xlink:href="#c76B9p9WD" opacity="1" fill-opacity="0" stroke="#000000" stroke-width="1" stroke-opacity="0"></use></g></g><g><use xlink:href="#k1WT3sp28a" opacity="1" fill="#ffb125" fill-opacity="1"></use><g><use xlink:href="#k1WT3sp28a" opacity="1" fill-opacity="0" stroke="#000000" stroke-width="1" stroke-opacity="0"></use></g></g><g><use xlink:href="#al3hqlkPZ" opacity="1" fill="#000000" fill-opacity="0"></use><g><use xlink:href="#al3hqlkPZ" opacity="1" fill-opacity="0" stroke="#000000" stroke-width="1" stroke-opacity="0"></use></g></g><g><use xlink:href="#c1p0zDzdLV" opacity="1" fill="#ff901d" fill-opacity="1"></use><g><use xlink:href="#c1p0zDzdLV" opacity="1" fill-opacity="0" stroke="#000000" stroke-width="1" stroke-opacity="0"></use></g></g><g><use xlink:href="#b22EJmvkjP" opacity="1" fill="#000000" fill-opacity="0"></use><g><use xlink:href="#b22EJmvkjP" opacity="1" fill-opacity="0" stroke="#000000" stroke-width="1" stroke-opacity="0"></use></g></g><g><use xlink:href="#h1gFsZEJaK" opacity="1" fill="#25ff35" fill-opacity="1"></use><g><use xlink:href="#h1gFsZEJaK" opacity="1" fill-opacity="0" stroke="#000000" stroke-width="1" stroke-opacity="0"></use></g></g><g><use xlink:href="#a6rR4ATuCS" opacity="1" fill="#000000" fill-opacity="0"></use><g><use xlink:href="#a6rR4ATuCS" opacity="1" fill-opacity="0" stroke="#000000" stroke-width="1" stroke-opacity="0"></use></g></g><g><use xlink:href="#h5v1AB9bz" opacity="1" fill="#ff901d" fill-opacity="1"></use><g><use xlink:href="#h5v1AB9bz" opacity="1" fill-opacity="0" stroke="#000000" stroke-width="1" stroke-opacity="0"></use></g></g><g><use xlink:href="#a3KSK2anzD" opacity="1" fill="#000000" fill-opacity="0"></use><g><use xlink:href="#a3KSK2anzD" opacity="1" fill-opacity="0" stroke="#000000" stroke-width="1" stroke-opacity="0"></use></g></g><g><g><filter id="shadow16129105" x="169.68" y="60.92" width="267.98" height="219" filterUnits="userSpaceOnUse" primitiveUnits="userSpaceOnUse"><feFlood></feFlood><feComposite in2="SourceAlpha" operator="in"></feComposite><feGaussianBlur stdDeviation="1"></feGaussianBlur><feOffset dx="1" dy="1" result="afterOffset"></feOffset><feFlood flood-color="#301c1c" flood-opacity="0.5"></feFlood><feComposite in2="afterOffset" operator="in"></feComposite><feMorphology operator="dilate" radius="1"></feMorphology><feComposite in2="SourceAlpha" operator="out"></feComposite></filter><path d="M407.66 69.92C418.7 69.92 427.66 78.88 427.66 89.92C427.66 125.92 427.66 213.92 427.66 249.92C427.66 260.97 418.7 269.92 407.66 269.92C361.86 269.92 244.47 269.92 198.68 269.92C187.63 269.92 178.68 260.97 178.68 249.92C178.68 213.92 178.68 125.92 178.68 89.92C178.68 78.88 187.63 69.92 198.68 69.92C244.47 69.92 361.86 69.92 407.66 69.92Z" id="c61w4kQkF" fill="white" fill-opacity="1" filter="url(#shadow16129105)"></path></g><use xlink:href="#b8dQPDQZ6" opacity="0.58" fill="#eeeef6" fill-opacity="1"></use><g><use xlink:href="#b8dQPDQZ6" opacity="0.58" fill-opacity="0" stroke="#f31ea8" stroke-width="1" stroke-opacity="1"></use></g><g><filter id="shadow8001252" x="169.68" y="60.92" width="267.98" height="219" filterUnits="userSpaceOnUse" primitiveUnits="userSpaceOnUse"><feFlood></feFlood><feComposite in2="SourceAlpha" operator="out"></feComposite><feGaussianBlur stdDeviation="1"></feGaussianBlur><feOffset dx="1" dy="1" result="afterOffset"></feOffset><feFlood flood-color="#ffffff" flood-opacity="0.8"></feFlood><feComposite in2="afterOffset" operator="in"></feComposite><feMorphology operator="dilate" radius="1"></feMorphology><feComposite in2="SourceAlpha" operator="in"></feComposite></filter><path d="M407.66 69.92C418.7 69.92 427.66 78.88 427.66 89.92C427.66 125.92 427.66 213.92 427.66 249.92C427.66 260.97 418.7 269.92 407.66 269.92C361.86 269.92 244.47 269.92 198.68 269.92C187.63 269.92 178.68 260.97 178.68 249.92C178.68 213.92 178.68 125.92 178.68 89.92C178.68 78.88 187.63 69.92 198.68 69.92C244.47 69.92 361.86 69.92 407.66 69.92Z" id="h1DANDOZ1T" fill="white" fill-opacity="1" filter="url(#shadow8001252)"></path></g></g></g></g></svg>