<?xml version="1.0" encoding="UTF-8" standalone="no"?>
<!DOCTYPE svg PUBLIC "-//W3C//DTD SVG 1.1//EN" "http://www.w3.org/Graphics/SVG/1.1/DTD/svg11.dtd">
<svg version="1.1" xmlns="http://www.w3.org/2000/svg" xmlns:xlink="http://www.w3.org/1999/xlink" preserveAspectRatio="xMidYMid meet" viewBox="0 0 851 315" width="851" height="315"><defs><path d="M62.13 45.96C62.75 45.47 63.63 46.05 63.43 46.81C60.49 57.6 55.36 68.26 47.46 76.18C47.1 70.64 47.1 65.04 47.6 59.5C52.14 54.55 56.89 50.09 62.13 45.96Z" id="iItgzNQdg"></path><path d="M35.44 58.84C35.03 58.13 33.96 58.38 33.92 59.19C33.28 71.79 38.09 86.52 49.82 92.47C48.65 87.11 47.81 81.66 47.46 76.19C42.89 70.68 38.97 64.98 35.44 58.84Z" id="c1cEiCVU3i"></path><path d="M59.67 75.72C60.12 75.09 61.12 75.38 61.15 76.16C61.61 87.03 59.75 98.53 54.53 108.08C52.6 103 50.97 97.78 49.81 92.46C52.69 86.55 55.9 81.05 59.67 75.72Z" id="e3xVH2eYMV"></path><path d="M38 95.44C37.4 94.9 36.46 95.46 36.66 96.24C39.79 108.27 48.74 120.61 61.48 122.79C58.83 118.07 56.46 113.16 54.53 108.09C48.61 104.28 43.19 100.11 38 95.44Z" id="a6ns9gKbBl"></path><path d="M66.07 104.04C66.31 103.31 67.35 103.3 67.61 104.03C71.22 114.23 72.69 125.75 70.51 136.33C67.19 132.04 64.12 127.53 61.48 122.79C62.51 116.34 64 110.19 66.07 104.04Z" id="d3yHqXjRlQ"></path><path d="M51.05 129.09C50.32 128.75 49.59 129.56 50.01 130.25C56.51 140.85 68.67 150.02 81.49 148.44C77.56 144.67 73.84 140.65 70.51 136.33C63.75 134.42 57.37 132.02 51.05 129.09Z" id="a1bOvEHUAv"></path><path d="M80.35 129.09C80.38 128.32 81.37 128.01 81.83 128.63C88.3 137.4 93.13 148.06 94.28 158.87C89.78 155.71 85.46 152.25 81.49 148.44C80.57 141.94 80.17 135.61 80.35 129.09Z" id="c3j2fRPGgn"></path><path d="M196.81 45.96C196.19 45.47 195.31 46.05 195.51 46.81C198.45 57.6 203.58 68.26 211.48 76.18C211.84 70.64 211.84 65.04 211.34 59.5C206.8 54.55 202.05 50.09 196.81 45.96Z" id="i1aikchXa6"></path><path d="M223.5 58.84C223.9 58.13 224.98 58.38 225.02 59.19C225.66 71.79 220.85 86.52 209.12 92.47C210.29 87.11 211.13 81.66 211.48 76.19C216.04 70.68 219.97 64.98 223.5 58.84Z" id="b1tP7aTfei"></path><path d="M199.27 75.72C198.82 75.09 197.82 75.38 197.79 76.16C197.33 87.03 199.19 98.53 204.41 108.08C206.34 103 207.97 97.78 209.12 92.46C206.25 86.55 203.04 81.05 199.27 75.72Z" id="h3jrklPXDm"></path><path d="M220.94 95.44C221.54 94.9 222.48 95.46 222.27 96.24C219.15 108.27 210.2 120.61 197.46 122.79C200.11 118.07 202.48 113.16 204.4 108.09C210.33 104.28 215.75 100.11 220.94 95.44Z" id="bs4gbFk46"></path><path d="M192.87 104.04C192.63 103.31 191.59 103.3 191.33 104.03C187.72 114.23 186.25 125.75 188.43 136.33C191.75 132.04 194.82 127.53 197.46 122.79C196.43 116.34 194.94 110.19 192.87 104.04Z" id="a1x7FP5k19"></path><path d="M207.89 129.09C208.62 128.75 209.35 129.56 208.93 130.25C202.43 140.85 190.26 150.02 177.45 148.44C181.38 144.67 185.1 140.65 188.43 136.33C195.19 134.42 201.57 132.02 207.89 129.09Z" id="bzuPFwDfT"></path><path d="M178.58 129.09C178.56 128.32 177.57 128.01 177.11 128.63C170.64 137.4 165.81 148.06 164.66 158.87C169.16 155.71 173.48 152.25 177.45 148.44C178.37 141.94 178.77 135.61 178.58 129.09Z" id="a1CLVoiHIU"></path><path d="M95.59 157.13C95.59 157.13 95.58 157.13 95.58 157.13C95.58 157.12 95.58 157.12 95.58 157.12C90.95 153.87 86.77 150.46 83.16 147C83.16 147 83.16 147 83.16 147C79.11 143.12 75.52 139.16 72.49 135.24C72.49 135.24 72.49 135.24 72.49 135.23C72.49 135.23 72.49 135.23 72.49 135.23C69.07 130.81 66.12 126.39 63.72 122.09C63.72 122.08 63.72 122.08 63.71 122.08C60.99 117.21 58.72 112.4 56.97 107.81C56.97 107.8 56.97 107.8 56.97 107.8C56.97 107.8 56.97 107.8 56.97 107.8C54.98 102.56 53.44 97.45 52.39 92.63C52.39 92.63 52.39 92.63 52.39 92.63C51.18 87.11 50.41 81.79 50.1 76.83C50.1 76.82 50.1 76.82 50.1 76.82C49.73 71.1 49.78 65.65 50.23 60.62C50.24 60.56 50.24 60.5 50.24 60.44C50.84 52.67 52.28 44.87 54.53 37.27C54.98 35.74 54.1 34.13 52.57 33.68C51.05 33.23 49.44 34.1 48.99 35.63C46.61 43.71 45.08 51.99 44.46 60.25C44.46 60.31 44.46 60.36 44.46 60.42C44 65.66 43.96 71.29 44.34 77.19C44.34 77.19 44.34 77.19 44.34 77.19C44.67 82.44 45.48 88.04 46.74 93.84C46.75 93.85 46.75 93.85 46.75 93.86C47.86 98.96 49.48 104.34 51.58 109.85C51.58 109.85 51.58 109.85 51.58 109.85C51.58 109.85 51.58 109.85 51.58 109.85C53.42 114.72 55.81 119.78 58.68 124.9C58.68 124.9 58.68 124.9 58.68 124.9C58.68 124.91 58.68 124.91 58.68 124.91C58.68 124.91 58.68 124.91 58.68 124.91C58.68 124.91 58.68 124.91 58.68 124.91C61.23 129.46 64.34 134.12 67.92 138.76C67.92 138.76 67.93 138.76 67.93 138.77C71.13 142.91 74.91 147.08 79.16 151.16C79.16 151.16 79.16 151.16 79.16 151.16C82.98 154.83 87.39 158.42 92.26 161.85C92.27 161.85 92.27 161.85 92.27 161.85C92.27 161.85 92.27 161.85 92.27 161.85C96.66 164.94 101.65 167.87 107.09 170.55C107.5 170.75 107.93 170.85 108.36 170.85C109.42 170.85 110.45 170.26 110.95 169.24C111.66 167.81 111.07 166.08 109.64 165.37C104.47 162.82 99.74 160.05 95.59 157.13Z" id="d1m3l8EQU8"></path><path d="M214.03 59.68C213.41 51.41 211.88 43.13 209.5 35.06C209.05 33.53 207.44 32.66 205.92 33.11C204.39 33.56 203.51 35.16 203.96 36.69C206.21 44.29 207.65 52.09 208.25 59.87C208.25 59.93 208.25 59.99 208.26 60.05C208.71 65.08 208.76 70.53 208.39 76.25C208.39 76.25 208.39 76.25 208.39 76.25C208.39 76.25 208.39 76.25 208.39 76.25C208.08 81.21 207.31 86.53 206.1 92.05C206.1 92.06 206.1 92.06 206.1 92.06C205.06 96.88 203.51 101.98 201.52 107.23C201.52 107.23 201.52 107.23 201.52 107.23C201.52 107.23 201.52 107.23 201.52 107.23C199.77 111.83 197.5 116.63 194.77 121.51C194.77 121.51 194.77 121.51 194.77 121.51C192.37 125.81 189.42 130.24 186 134.66C186 134.66 186 134.66 186 134.66C186 134.66 186 134.66 186 134.66C182.97 138.59 179.38 142.54 175.33 146.42C175.33 146.42 175.33 146.43 175.33 146.43C171.72 149.89 167.54 153.29 162.91 156.55C162.91 156.55 162.91 156.55 162.9 156.55C162.9 156.55 162.9 156.55 162.9 156.55C158.75 159.47 154.02 162.25 148.85 164.8C147.42 165.5 146.83 167.23 147.54 168.66C148.04 169.68 149.06 170.27 150.13 170.27C150.56 170.27 150.99 170.18 151.4 169.98C156.84 167.29 161.83 164.37 166.22 161.27C166.22 161.27 166.22 161.27 166.23 161.27C171.1 157.84 175.51 154.25 179.33 150.59C179.33 150.59 179.33 150.58 179.33 150.58C183.59 146.51 187.37 142.34 190.57 138.19C190.57 138.19 190.57 138.19 190.57 138.19C190.57 138.19 190.57 138.19 190.57 138.19C194.16 133.54 197.27 128.88 199.81 124.33C199.81 124.33 199.81 124.32 199.81 124.32C202.68 119.2 205.07 114.14 206.91 109.28C206.91 109.28 206.91 109.28 206.91 109.28C206.91 109.28 206.91 109.28 206.91 109.28C209.01 103.77 210.63 98.39 211.74 93.29C211.74 93.29 211.74 93.29 211.74 93.29C213.01 87.48 213.82 81.87 214.15 76.62C214.15 76.61 214.15 76.61 214.15 76.61C214.53 70.71 214.49 65.08 214.03 59.84C214.03 59.79 214.03 59.73 214.03 59.68Z" id="c3rGIxqwOT"></path><path d="M90.19 108.42C82.23 101.65 77.67 91.77 77.67 81.32C77.67 80.35 77.67 72.54 77.67 71.56C77.67 70.44 78.11 69.38 78.9 68.58C79.7 67.79 80.76 67.35 81.88 67.35C81.88 67.35 81.89 67.35 81.89 67.35C84.45 67.35 104.88 67.4 107.44 67.4C109.03 67.41 110.32 68.7 110.32 70.3C110.31 71.89 109.02 73.18 107.43 73.18C107.43 73.18 107.43 73.18 107.43 73.18C105.83 73.17 97.83 73.16 83.44 73.12C83.44 78.04 83.44 80.78 83.44 81.32C83.44 90.08 87.26 98.35 93.93 104.03C100.55 109.66 109.25 112.1 117.8 110.71C118.09 110.66 118.39 110.61 118.69 110.56C120.27 110.29 121.76 111.33 122.03 112.9C122.31 114.47 121.26 115.97 119.69 116.24C119.36 116.3 119.04 116.35 118.72 116.41C116.84 116.71 114.95 116.86 113.07 116.86C104.75 116.86 96.64 113.91 90.19 108.42Z" id="b34VhiGr4W"></path><path d="M140.22 116.41C139.9 116.35 139.57 116.3 139.25 116.24C137.68 115.97 136.63 114.47 136.9 112.9C137.18 111.33 138.68 110.28 140.25 110.56C140.55 110.61 140.84 110.66 141.14 110.71C149.69 112.09 158.39 109.66 165.01 104.03C171.68 98.35 175.5 90.08 175.5 81.32C175.5 80.78 175.5 78.04 175.5 73.12C161.11 73.16 153.11 73.17 151.51 73.18C151.51 73.18 151.51 73.18 151.51 73.18C149.92 73.18 148.62 71.89 148.62 70.3C148.62 68.7 149.91 67.41 151.5 67.41C154.05 67.4 174.49 67.35 177.05 67.35C177.05 67.35 177.06 67.35 177.06 67.35C178.18 67.35 179.24 67.79 180.04 68.58C180.83 69.38 181.27 70.44 181.27 71.56C181.27 72.54 181.27 80.35 181.27 81.32C181.27 91.77 176.71 101.65 168.75 108.42C162.3 113.91 154.19 116.86 145.87 116.86C143.99 116.86 142.1 116.71 140.22 116.41Z" id="a2aB2DXTG5"></path><path d="M148.44 158.68C132.72 138.75 134.36 110.02 134.36 110.02C134.04 110.02 132.41 110.02 129.47 110.02C126.53 110.02 124.9 110.02 124.57 110.02C124.57 110.02 126.21 138.75 110.5 158.68C118.09 158.68 144.65 158.68 148.44 158.68Z" id="b2TQU4qz3b"></path><path d="M129.47 110.02C126.53 110.02 124.9 110.02 124.57 110.02C124.57 110.02 124.83 114.48 124.18 121.11C122.93 133.73 126.06 146.47 133.45 156.79C133.91 157.43 134.39 158.06 134.88 158.68C136.23 158.68 147.09 158.68 148.44 158.68C132.72 138.75 134.36 110.02 134.36 110.02C133.71 110.02 132.08 110.02 129.47 110.02Z" id="b5HSgVann9"></path><path d="M100.84 84.26C100.84 99.15 107.92 113.16 119.92 121.99C119.92 121.99 119.92 121.99 119.92 121.99C125.6 126.18 133.34 126.18 139.02 121.99C139.02 121.99 139.02 121.99 139.02 121.99C151.02 113.16 158.09 99.15 158.09 84.26C158.09 82.58 158.09 74.18 158.09 59.08L100.84 59.08L100.84 59.08C100.84 74.18 100.84 82.58 100.84 84.26Z" id="b2ymFXwa4b"></path><path d="M144.46 84.26C144.46 99.15 137.39 113.16 125.39 121.99C125.39 121.99 125.39 121.99 125.39 121.99C124.52 122.63 123.61 123.17 122.65 123.62C127.92 126.08 134.21 125.54 139.02 121.99C139.02 121.99 139.02 121.99 139.02 121.99C151.01 113.16 158.09 99.15 158.09 84.26C158.09 82.58 158.09 74.18 158.09 59.08L144.46 59.08L144.46 59.08C144.46 74.18 144.46 82.58 144.46 84.26Z" id="b2f6lFwUc5"></path><path d="M98.79 63.01C97.87 63.01 97.12 62.26 97.12 61.34C97.12 60.64 97.12 55.09 97.12 54.4C97.12 53.47 97.87 52.73 98.79 52.73C104.93 52.73 154.01 52.73 160.15 52.73C161.07 52.73 161.82 53.47 161.82 54.4C161.82 55.09 161.82 60.64 161.82 61.34C161.82 62.26 161.07 63.01 160.15 63.01C147.87 63.01 104.93 63.01 98.79 63.01Z" id="a4jpH1llpo"></path><path d="M148.19 52.73L148.19 63.01C155.36 63.01 159.35 63.01 160.15 63.01C161.07 63.01 161.82 62.26 161.82 61.34C161.82 60.64 161.82 55.09 161.82 54.4C161.82 53.48 161.07 52.73 160.15 52.73C158.55 52.73 154.57 52.73 148.19 52.73Z" id="a1MMTjlt1"></path><path d="M49.59 226.51C29.59 226.37 13.49 210.04 13.64 190.05C13.89 154.4 14.39 83.68 14.64 48.03C14.78 28.04 31.1 11.94 51.1 12.08C92.95 12.38 182.29 13.01 224.14 13.31C244.13 13.45 260.23 29.77 260.09 49.77C259.83 85.41 259.33 156.14 259.08 191.78C258.94 211.78 242.62 227.87 222.62 227.73C180.77 227.44 91.43 226.8 49.59 226.51Z" id="a9D1IIuca"></path><path d="M97.17 170.85C96.23 170.85 95.58 169.91 95.91 169.03C96.39 167.73 100.24 157.29 100.72 155.98C100.92 155.45 101.42 155.1 101.99 155.1C107.51 155.1 151.68 155.1 157.21 155.1C157.77 155.1 158.28 155.45 158.47 155.98C158.95 157.29 162.81 167.73 163.29 169.03C163.61 169.91 162.96 170.85 162.02 170.85C149.05 170.85 103.66 170.85 97.17 170.85Z" id="ebrSuZoH8"></path><path d="M158.47 155.98C158.28 155.45 157.77 155.1 157.21 155.1C156.33 155.1 151.94 155.1 144.04 155.1L149.85 170.85C157.15 170.85 161.21 170.85 162.02 170.85C162.96 170.85 163.61 169.91 163.29 169.03C162.33 166.42 158.96 157.29 158.47 155.98Z" id="a2uHof2aWe"></path></defs><g><g><g><use xlink:href="#iItgzNQdg" opacity="1" fill="#ff901d" fill-opacity="1"></use><g><use xlink:href="#iItgzNQdg" opacity="1" fill-opacity="0" stroke="#000000" stroke-width="1" stroke-opacity="0"></use></g></g><g><use xlink:href="#c1cEiCVU3i" opacity="1" fill="#ff901d" fill-opacity="1"></use><g><use xlink:href="#c1cEiCVU3i" opacity="1" fill-opacity="0" stroke="#000000" stroke-width="1" stroke-opacity="0"></use></g></g><g><use xlink:href="#e3xVH2eYMV" opacity="1" fill="#ff901d" fill-opacity="1"></use><g><use xlink:href="#e3xVH2eYMV" opacity="1" fill-opacity="0" stroke="#000000" stroke-width="1" stroke-opacity="0"></use></g></g><g><use xlink:href="#a6ns9gKbBl" opacity="1" fill="#ff901d" fill-opacity="1"></use><g><use xlink:href="#a6ns9gKbBl" opacity="1" fill-opacity="0" stroke="#000000" stroke-width="1" stroke-opacity="0"></use></g></g><g><use xlink:href="#d3yHqXjRlQ" opacity="1" fill="#ff901d" fill-opacity="1"></use><g><use xlink:href="#d3yHqXjRlQ" opacity="1" fill-opacity="0" stroke="#000000" stroke-width="1" stroke-opacity="0"></use></g></g><g><use xlink:href="#a1bOvEHUAv" opacity="1" fill="#ff901d" fill-opacity="1"></use><g><use xlink:href="#a1bOvEHUAv" opacity="1" fill-opacity="0" stroke="#000000" stroke-width="1" stroke-opacity="0"></use></g></g><g><use xlink:href="#c3j2fRPGgn" opacity="1" fill="#ff901d" fill-opacity="1"></use><g><use xlink:href="#c3j2fRPGgn" opacity="1" fill-opacity="0" stroke="#000000" stroke-width="1" stroke-opacity="0"></use></g></g><g><use xlink:href="#i1aikchXa6" opacity="1" fill="#ff901d" fill-opacity="1"></use><g><use xlink:href="#i1aikchXa6" opacity="1" fill-opacity="0" stroke="#000000" stroke-width="1" stroke-opacity="0"></use></g></g><g><use xlink:href="#b1tP7aTfei" opacity="1" fill="#ff901d" fill-opacity="1"></use><g><use xlink:href="#b1tP7aTfei" opacity="1" fill-opacity="0" stroke="#000000" stroke-width="1" stroke-opacity="0"></use></g></g><g><use xlink:href="#h3jrklPXDm" opacity="1" fill="#ff901d" fill-opacity="1"></use><g><use xlink:href="#h3jrklPXDm" opacity="1" fill-opacity="0" stroke="#000000" stroke-width="1" stroke-opacity="0"></use></g></g><g><use xlink:href="#bs4gbFk46" opacity="1" fill="#ff901d" fill-opacity="1"></use><g><use xlink:href="#bs4gbFk46" opacity="1" fill-opacity="0" stroke="#000000" stroke-width="1" stroke-opacity="0"></use></g></g><g><use xlink:href="#a1x7FP5k19" opacity="1" fill="#ff901d" fill-opacity="1"></use><g><use xlink:href="#a1x7FP5k19" opacity="1" fill-opacity="0" stroke="#000000" stroke-width="1" stroke-opacity="0"></use></g></g><g><use xlink:href="#bzuPFwDfT" opacity="1" fill="#ff901d" fill-opacity="1"></use><g><use xlink:href="#bzuPFwDfT" opacity="1" fill-opacity="0" stroke="#000000" stroke-width="1" stroke-opacity="0"></use></g></g><g><use xlink:href="#a1CLVoiHIU" opacity="1" fill="#ff901d" fill-opacity="1"></use><g><use xlink:href="#a1CLVoiHIU" opacity="1" fill-opacity="0" stroke="#000000" stroke-width="1" stroke-opacity="0"></use></g></g><g><use xlink:href="#d1m3l8EQU8" opacity="1" fill="#bf14f7" fill-opacity="1"></use><g><use xlink:href="#d1m3l8EQU8" opacity="1" fill-opacity="0" stroke="#000000" stroke-width="1" stroke-opacity="0"></use></g></g><g><use xlink:href="#c3rGIxqwOT" opacity="1" fill="#ef14f7" fill-opacity="1"></use><g><use xlink:href="#c3rGIxqwOT" opacity="1" fill-opacity="0" stroke="#000000" stroke-width="1" stroke-opacity="0"></use></g></g><g><use xlink:href="#b34VhiGr4W" opacity="1" fill="#ffb125" fill-opacity="1"></use><g><use xlink:href="#b34VhiGr4W" opacity="1" fill-opacity="0" stroke="#000000" stroke-width="1" stroke-opacity="0"></use></g></g><g><use xlink:href="#a2aB2DXTG5" opacity="1" fill="#ffb125" fill-opacity="1"></use><g><use xlink:href="#a2aB2DXTG5" opacity="1" fill-opacity="0" stroke="#000000" stroke-width="1" stroke-opacity="0"></use></g></g><g><use xlink:href="#b2TQU4qz3b" opacity="1" fill="#fed130" fill-opacity="1"></use><g><use xlink:href="#b2TQU4qz3b" opacity="1" fill-opacity="0" stroke="#000000" stroke-width="1" stroke-opacity="0"></use></g></g><g><use xlink:href="#b5HSgVann9" opacity="1" fill="#24f714" fill-opacity="1"></use><g><use xlink:href="#b5HSgVann9" opacity="1" fill-opacity="0" stroke="#000000" stroke-width="1" stroke-opacity="0"></use></g></g><g><use xlink:href="#b2ymFXwa4b" opacity="1" fill="#a030fe" fill-opacity="1"></use><g><use xlink:href="#b2ymFXwa4b" opacity="1" fill-opacity="0" stroke="#000000" stroke-width="1" stroke-opacity="0"></use></g></g><g><use xlink:href="#b2f6lFwUc5" opacity="1" fill="#14f7b5" fill-opacity="1"></use><g><use xlink:href="#b2f6lFwUc5" opacity="1" fill-opacity="0" stroke="#000000" stroke-width="1" stroke-opacity="0"></use></g></g><g><use xlink:href="#a4jpH1llpo" opacity="1" fill="#ffb125" fill-opacity="1"></use><g><use xlink:href="#a4jpH1llpo" opacity="1" fill-opacity="0" stroke="#000000" stroke-width="1" stroke-opacity="0"></use></g></g><g><use xlink:href="#a1MMTjlt1" opacity="1" fill="#ff901d" fill-opacity="1"></use><g><use xlink:href="#a1MMTjlt1" opacity="1" fill-opacity="0" stroke="#000000" stroke-width="1" stroke-opacity="0"></use></g></g><g><use xlink:href="#a9D1IIuca" opacity="0.27" fill="#dad0d0" fill-opacity="1"></use><g><use xlink:href="#a9D1IIuca" opacity="0.27" fill-opacity="0" stroke="#f1f6f1" stroke-width="1" stroke-opacity="1"></use></g></g><g><use xlink:href="#ebrSuZoH8" opacity="1" fill="#25ff35" fill-opacity="1"></use><g><use xlink:href="#ebrSuZoH8" opacity="1" fill-opacity="0" stroke="#000000" stroke-width="1" stroke-opacity="0"></use></g></g><g><use xlink:href="#a2uHof2aWe" opacity="1" fill="#ff901d" fill-opacity="1"></use><g><use xlink:href="#a2uHof2aWe" opacity="1" fill-opacity="0" stroke="#000000" stroke-width="1" stroke-opacity="0"></use></g></g></g></g></svg>